# xmcd
# Copyright (C) 1995-1998 Ti Kan
#
# Track frame offsets:
#       150
#       15167
#       32224
#       45693
#       59325
#       74653
#       88871
#       105362
#       121298
#       139651
#       152655
#       168468
#
# Disc length: 2456 seconds
#
# Revision: 0
# Processed by: cddbd v1.5.2PL0 Copyright (c) Steve Scherf et al.
# Submitted via: CD-Transfer v1.0
#
DISCID=9b09960c
DTITLE=Alpentrio Tirol - 
DYEAR=1900
DGENRE=
TTITLE0=Bye bye Tirol
TTITLE1=Den Liedern bleibt die Ewigkeit
TTITLE2=Für die zärtlichste Frau auf der Welt
TTITLE3=Regenbogensommer
TTITLE4=Das weiße Schiff von Casablanca
TTITLE5=Vorbei (bye bye) ist nur der Sommer
TTITLE6=Und wenn Tirol am Nordpol wär
TTITLE7=Wo die Sonne die Berge berührt
TTITLE8=Nachts, wenn ich nicht schlafen kann
TTITLE9=Du bist die Liebe meines Lebens
TTITLE10=Alpentrio Medley 2011
TTITLE11=Servus Freunde - es war schön
EXTD=
EXTT0=
EXTT1=
EXTT2=
EXTT3=
EXTT4=
EXTT5=
EXTT6=
EXTT7=
EXTT8=
EXTT9=
EXTT10=
EXTT11=
PLAYORDER=
